<?xml version="1.0" encoding="UTF-8"?>
<!-- Created with Inkscape (http://www.inkscape.org/) -->
<svg width="39.993mm" height="7.4083mm" version="1.1" viewBox="0 0 39.993 7.4083" xmlns="http://www.w3.org/2000/svg">
 <g transform="translate(-22.887 -115.1)">
  <g transform="matrix(.92968 0 0 1.0756 22.357 114.57)" fill="#416aa0" stop-color="#000000" stroke-width=".1613" aria-label="//">
   <path d="m4.5535 0.49196-2.5614 6.8874h-1.423l2.5614-6.8874z"/>
   <path d="m8.5379 0.49196-2.5614 6.8874h-1.423l2.5614-6.8874z"/>
  </g>
  <g transform="translate(0 -.1715)" stroke-width=".32864" aria-label="Uncomment">
   <path d="m34.151 116.79h0.49078v2.8649q0 0.38648-0.10429 0.66868-0.09816 0.2822-0.28833 0.46624-0.18404 0.1779-0.44783 0.26379-0.26379 0.0859-0.5828 0.0859-0.7607 0-1.1472-0.34355-0.38649-0.34354-0.38649-1.0429v-2.9631h0.50918v2.7238q0 0.32514 0.06135 0.55212 0.06748 0.22085 0.19631 0.36195 0.12883 0.13496 0.319 0.19631 0.19631 0.0614 0.45397 0.0614 0.49691 0 0.71162-0.26993 0.21472-0.27606 0.21472-0.9018z"/>
   <path d="m37.605 121.08v-1.7484q0-0.4785-0.1411-0.71776-0.13496-0.24538-0.50304-0.24538-0.32514 0-0.53985 0.1779-0.20858 0.17177-0.29446 0.43557v2.0981h-0.49078v-3.0674h0.34354l0.09202 0.37422h0.02454q0.14723-0.19631 0.39262-0.319 0.25152-0.12883 0.59507-0.12883 0.25152 0 0.4417 0.0613 0.19018 0.0552 0.31287 0.20245 0.12883 0.14723 0.19018 0.39875 0.06748 0.24539 0.06748 0.62574v1.8527z"/>
   <path d="m41.083 120.88q-0.18404 0.13496-0.43556 0.20244-0.25152 0.0736-0.52758 0.0736-0.35581 0-0.6012-0.11043-0.24539-0.11655-0.40489-0.32513-0.15337-0.21472-0.22698-0.50918-0.06748-0.3006-0.06748-0.66255 0-0.77911 0.34354-1.1901 0.34354-0.41716 0.98769-0.41716 0.29446 0 0.49691 0.0491 0.20858 0.0429 0.37422 0.12883l-0.1411 0.4233q-0.1411-0.0797-0.31287-0.1227-0.17177-0.0491-0.36808-0.0491-0.87113 0-0.87113 1.1779 0 0.23312 0.04294 0.44783 0.04908 0.20858 0.15337 0.37422 0.11042 0.1595 0.2822 0.25766 0.17791 0.0982 0.43556 0.0982 0.22085 0 0.39262-0.0675 0.17791-0.0675 0.28833-0.15337z"/>
   <path d="m41.445 119.55q0-0.77911 0.34354-1.1901 0.34968-0.41716 0.99996-0.41716 0.34354 0 0.59507 0.11656 0.25766 0.11042 0.42329 0.32513 0.16564 0.20858 0.24539 0.50919 0.07975 0.29446 0.07975 0.65641 0 0.7791-0.34968 1.1963-0.34354 0.41103-0.99382 0.41103-0.34354 0-0.6012-0.11043-0.25152-0.11655-0.41716-0.32513-0.16564-0.21472-0.24539-0.50918-0.07975-0.3006-0.07975-0.66255zm0.50918 0q0 0.23312 0.04294 0.44783 0.04908 0.21472 0.14723 0.37422 0.09815 0.1595 0.25766 0.25766 0.1595 0.0982 0.38649 0.0982 0.83432 6e-3 0.83432-1.1779 0-0.23926-0.04908-0.45397-0.04294-0.21471-0.1411-0.37422-0.09816-0.1595-0.25766-0.25152-0.1595-0.0982-0.38649-0.0982-0.83432-6e-3 -0.83432 1.1779z"/>
   <path d="m46.703 121.08v-1.7361q0-0.24539-0.02454-0.42329-0.0184-0.18404-0.07975-0.30674-0.06135-0.12269-0.17791-0.18404-0.11042-0.0613-0.29447-0.0613-0.2822 0-0.47237 0.17177-0.18404 0.17177-0.25766 0.42943v2.1103h-0.49078v-3.0674h0.34354l0.09202 0.37422h0.02454q0.16564-0.19631 0.38035-0.319 0.22085-0.12883 0.57053-0.12883 0.29447 0 0.47851 0.11656 0.19018 0.11042 0.29446 0.39262 0.1411-0.23926 0.38649-0.37422 0.25152-0.13496 0.56439-0.13496 0.25766 0 0.43556 0.0613 0.17791 0.0552 0.29447 0.20245 0.11656 0.14723 0.16564 0.39875 0.05521 0.25153 0.05521 0.63801v1.8404h-0.49078v-1.8465q0-0.22085-0.02454-0.38035-0.0184-0.16564-0.08588-0.26993-0.06135-0.11042-0.17791-0.1595-0.11042-0.0552-0.29446-0.0552-0.30674 0-0.47851 0.17177t-0.24539 0.49077v2.049z"/>
   <path d="m51.684 121.08v-1.7361q0-0.24539-0.02454-0.42329-0.0184-0.18404-0.07975-0.30674-0.06135-0.12269-0.17791-0.18404-0.11042-0.0613-0.29447-0.0613-0.2822 0-0.47237 0.17177-0.18404 0.17177-0.25766 0.42943v2.1103h-0.49078v-3.0674h0.34354l0.09202 0.37422h0.02454q0.16564-0.19631 0.38035-0.319 0.22085-0.12883 0.57053-0.12883 0.29447 0 0.47851 0.11656 0.19018 0.11042 0.29446 0.39262 0.1411-0.23926 0.38649-0.37422 0.25152-0.13496 0.56439-0.13496 0.25766 0 0.43556 0.0613 0.17791 0.0552 0.29446 0.20245 0.11656 0.14723 0.16564 0.39875 0.05521 0.25153 0.05521 0.63801v1.8404h-0.49078v-1.8465q0-0.22085-0.02454-0.38035-0.01841-0.16564-0.08589-0.26993-0.06135-0.11042-0.17791-0.1595-0.11042-0.0552-0.29446-0.0552-0.30674 0-0.47851 0.17177-0.17177 0.17177-0.24539 0.49077v2.049z"/>
   <path d="m57.107 120.84q-0.18404 0.14724-0.46624 0.23312-0.27606 0.0859-0.58893 0.0859-0.34968 0-0.60734-0.11043-0.25766-0.11655-0.42329-0.32513-0.16564-0.21472-0.24539-0.50918-0.07975-0.29447-0.07975-0.66255 0-0.78524 0.34968-1.1963 0.34968-0.41102 0.99996-0.41102 0.20858 0 0.41716 0.0491 0.20858 0.0429 0.37422 0.17178 0.16564 0.12882 0.26993 0.36808 0.10429 0.23312 0.10429 0.6196 0 0.20245-0.03681 0.44784h-1.9692q0 0.26992 0.05521 0.4785t0.17177 0.35581q0.11656 0.1411 0.3006 0.22085 0.19018 0.0736 0.4601 0.0736 0.20858 0 0.41716-0.0736t0.31287-0.17177zm-1.0552-2.4661q-0.36195 0-0.5828 0.19017-0.21472 0.19018-0.25766 0.65028h1.5214q0-0.46624-0.17791-0.65028-0.17791-0.19017-0.50305-0.19017z"/>
   <path d="m59.954 121.08v-1.7484q0-0.4785-0.1411-0.71776-0.13496-0.24538-0.50304-0.24538-0.32514 0-0.53985 0.1779-0.20858 0.17177-0.29446 0.43557v2.0981h-0.49078v-3.0674h0.34354l0.09202 0.37422h0.02454q0.14723-0.19631 0.39262-0.319 0.25152-0.12883 0.59507-0.12883 0.25152 0 0.4417 0.0613 0.19018 0.0552 0.31287 0.20245 0.12883 0.14723 0.19018 0.39875 0.06748 0.24539 0.06748 0.62574v1.8527z"/>
   <path d="m60.935 118.01h0.47851v-0.60733l0.49078-0.1411v0.74843h0.83432v0.42943h-0.83432v1.6993q0 0.31901 0.07975 0.45397 0.07975 0.12883 0.26993 0.12883 0.1595 0 0.26993-0.0307 0.11042-0.0368 0.24539-0.092l0.11042 0.37421q-0.16564 0.0797-0.36195 0.12883-0.19631 0.0491-0.42329 0.0491-0.37422 0-0.52758-0.20858-0.15337-0.21472-0.15337-0.71163v-1.7913h-0.47851z"/>
  </g>
 </g>
</svg>
